<?xml version="1.0" standalone="no"?>
<!DOCTYPE svg PUBLIC "-//W3C//DTD SVG 20010904//EN"
 "http://www.w3.org/TR/2001/REC-SVG-20010904/DTD/svg10.dtd">
<svg version="1.0" xmlns="http://www.w3.org/2000/svg"
 width="700.000000pt" height="700.000000pt" viewBox="0 0 700.000000 700.000000"
 preserveAspectRatio="xMidYMid meet">
<metadata>
Created by potrace 1.11, written by Peter Selinger 2001-2013
</metadata>
<g transform="translate(0.000000,700.000000) scale(0.100000,-0.100000)"
fill="#000000" stroke="none">
<path d="M1269 6795 c-2 -2 -28 -6 -58 -10 -30 -4 -65 -11 -78 -16 -13 -5 -23
-7 -23 -4 0 2 -38 -9 -85 -25 -175 -59 -318 -146 -453 -275 -176 -167 -286
-363 -349 -620 -16 -65 -17 -232 -19 -2330 -2 -1873 0 -2275 11 -2348 40 -250
151 -471 330 -653 183 -187 400 -300 659 -344 94 -16 263 -17 2346 -15 1235 1
2263 5 2285 9 425 76 764 346 925 736 35 85 67 203 78 287 9 76 9 4513 0 4580
-61 420 -355 798 -733 942 -33 13 -69 27 -80 32 -11 5 -49 15 -85 23 -36 8
-78 18 -95 22 -16 5 -393 10 -837 11 l-808 4 0 -193 c-1 -229 -4 -255 -40
-333 -56 -123 -174 -215 -305 -235 -64 -9 -714 -7 -753 3 -90 24 -188 93 -241
171 -25 37 -73 155 -70 174 1 4 1 98 0 210 l-1 202 -759 0 c-417 -1 -760 -3
-762 -5z m1092 -445 c0 -8 2 -22 4 -30 1 -8 5 -31 9 -51 8 -50 52 -172 83
-228 88 -159 227 -288 396 -366 148 -68 148 -68 617 -71 422 -3 426 -3 518 21
254 66 442 217 560 450 29 57 66 174 75 242 3 17 7 35 10 40 6 10 1084 9 1144
-1 139 -23 292 -100 406 -205 89 -82 179 -244 213 -381 17 -72 18 -177 18
-2295 l0 -2220 -21 -82 c-75 -286 -281 -494 -562 -563 -76 -19 -132 -20 -2292
-21 -1648 -1 -2230 2 -2278 11 -299 54 -539 286 -607 585 -17 76 -18 190 -18
2300 0 2104 1 2224 18 2290 22 84 72 195 117 262 114 167 325 297 518 320 25
3 47 6 48 7 1 0 231 1 512 1 447 0 511 -2 512 -15z"/>
<path d="M2215 4178 c-16 -4 -41 -10 -55 -12 -14 -2 -44 -11 -68 -20 -191 -69
-346 -228 -416 -425 -27 -78 -30 -98 -31 -211 0 -127 9 -180 47 -271 l20 -47
71 33 c95 44 224 82 333 99 137 22 372 13 504 -17 103 -25 244 -75 287 -103
20 -13 24 -12 37 8 53 84 78 289 51 426 -19 96 -88 238 -151 310 -90 103 -223
185 -354 218 -71 18 -227 25 -275 12z"/>
<path d="M4505 4164 c-94 -25 -140 -45 -215 -95 -139 -92 -242 -238 -285 -404
-14 -56 -21 -223 -11 -270 19 -85 28 -118 45 -159 l21 -47 57 29 c73 37 166
69 252 87 37 8 80 17 96 20 17 4 95 8 175 10 130 3 195 -3 336 -29 53 -10 180
-54 244 -85 l62 -30 19 43 c54 122 68 307 34 436 -67 256 -274 452 -535 506
-78 16 -213 11 -295 -12z"/>
<path d="M3175 2772 c-1 -2 0 -20 2 -40 27 -198 217 -332 408 -287 138 32 244
148 261 284 l5 46 -336 0 c-185 0 -338 -1 -340 -3z"/>
</g>
</svg>
